<mxfile host="app.diagrams.net" modified="2023-10-09T16:28:47.541Z" agent="Mozilla/5.0 (Windows NT 10.0; Win64; x64) AppleWebKit/537.36 (KHTML, like Gecko) Chrome/117.0.0.0 Safari/537.36" etag="uSzWeaw8pe95uE0KfvLY" version="22.0.3" type="device">
  <diagram name="PÃ¡gina-1" id="RTWXF7PR54CcmBfObkEC">
    <mxGraphModel dx="2181" dy="1774" grid="1" gridSize="10" guides="1" tooltips="1" connect="1" arrows="1" fold="1" page="1" pageScale="1" pageWidth="827" pageHeight="1169" math="0" shadow="0">
      <root>
        <mxCell id="0" />
        <mxCell id="1" parent="0" />
        <mxCell id="TbbzOK-Zggq_RYsdLNiC-2" value="" style="rounded=0;whiteSpace=wrap;html=1;" parent="1" vertex="1">
          <mxGeometry x="350" y="220" width="120" height="60" as="geometry" />
        </mxCell>
        <mxCell id="TbbzOK-Zggq_RYsdLNiC-3" value="aprendiz" style="text;html=1;strokeColor=none;fillColor=none;align=center;verticalAlign=middle;whiteSpace=wrap;rounded=0;" parent="1" vertex="1">
          <mxGeometry x="380" y="235" width="60" height="30" as="geometry" />
        </mxCell>
        <mxCell id="TbbzOK-Zggq_RYsdLNiC-4" value="" style="ellipse;whiteSpace=wrap;html=1;aspect=fixed;" parent="1" vertex="1">
          <mxGeometry x="305" y="165" width="40" height="40" as="geometry" />
        </mxCell>
        <mxCell id="TbbzOK-Zggq_RYsdLNiC-5" value="id_aprendiz" style="text;html=1;strokeColor=none;fillColor=none;align=center;verticalAlign=middle;whiteSpace=wrap;rounded=0;" parent="1" vertex="1">
          <mxGeometry x="240" y="150" width="60" height="30" as="geometry" />
        </mxCell>
        <mxCell id="TbbzOK-Zggq_RYsdLNiC-6" value="" style="endArrow=none;html=1;rounded=0;entryX=0.5;entryY=1;entryDx=0;entryDy=0;" parent="1" target="TbbzOK-Zggq_RYsdLNiC-4" edge="1">
          <mxGeometry width="50" height="50" relative="1" as="geometry">
            <mxPoint x="360" y="220" as="sourcePoint" />
            <mxPoint x="310" y="180" as="targetPoint" />
          </mxGeometry>
        </mxCell>
        <mxCell id="TbbzOK-Zggq_RYsdLNiC-7" value="" style="ellipse;whiteSpace=wrap;html=1;aspect=fixed;" parent="1" vertex="1">
          <mxGeometry x="414" y="170" width="40" height="40" as="geometry" />
        </mxCell>
        <mxCell id="TbbzOK-Zggq_RYsdLNiC-8" value="" style="ellipse;whiteSpace=wrap;html=1;aspect=fixed;" parent="1" vertex="1">
          <mxGeometry x="394" y="120" width="40" height="40" as="geometry" />
        </mxCell>
        <mxCell id="TbbzOK-Zggq_RYsdLNiC-9" value="" style="ellipse;whiteSpace=wrap;html=1;aspect=fixed;" parent="1" vertex="1">
          <mxGeometry x="454" y="130" width="40" height="40" as="geometry" />
        </mxCell>
        <mxCell id="TbbzOK-Zggq_RYsdLNiC-10" value="" style="ellipse;whiteSpace=wrap;html=1;aspect=fixed;rotation=-15;" parent="1" vertex="1">
          <mxGeometry x="310" y="170" width="30" height="30" as="geometry" />
        </mxCell>
        <mxCell id="TbbzOK-Zggq_RYsdLNiC-11" value="" style="endArrow=none;html=1;rounded=0;entryX=0.5;entryY=1;entryDx=0;entryDy=0;exitX=0.75;exitY=0;exitDx=0;exitDy=0;" parent="1" source="TbbzOK-Zggq_RYsdLNiC-2" target="TbbzOK-Zggq_RYsdLNiC-7" edge="1">
          <mxGeometry width="50" height="50" relative="1" as="geometry">
            <mxPoint x="390" y="230" as="sourcePoint" />
            <mxPoint x="440" y="180" as="targetPoint" />
          </mxGeometry>
        </mxCell>
        <mxCell id="TbbzOK-Zggq_RYsdLNiC-12" value="" style="endArrow=none;html=1;rounded=0;entryX=0;entryY=1;entryDx=0;entryDy=0;" parent="1" target="TbbzOK-Zggq_RYsdLNiC-9" edge="1">
          <mxGeometry width="50" height="50" relative="1" as="geometry">
            <mxPoint x="450" y="180" as="sourcePoint" />
            <mxPoint x="500" y="130" as="targetPoint" />
          </mxGeometry>
        </mxCell>
        <mxCell id="TbbzOK-Zggq_RYsdLNiC-13" value="" style="endArrow=none;html=1;rounded=0;entryX=0.5;entryY=0;entryDx=0;entryDy=0;exitX=0.5;exitY=1;exitDx=0;exitDy=0;" parent="1" source="TbbzOK-Zggq_RYsdLNiC-8" target="TbbzOK-Zggq_RYsdLNiC-7" edge="1">
          <mxGeometry width="50" height="50" relative="1" as="geometry">
            <mxPoint x="350" y="220" as="sourcePoint" />
            <mxPoint x="400" y="170" as="targetPoint" />
          </mxGeometry>
        </mxCell>
        <mxCell id="TbbzOK-Zggq_RYsdLNiC-14" value="nombre" style="text;html=1;strokeColor=none;fillColor=none;align=center;verticalAlign=middle;whiteSpace=wrap;rounded=0;" parent="1" vertex="1">
          <mxGeometry x="444" y="180" width="60" height="30" as="geometry" />
        </mxCell>
        <mxCell id="TbbzOK-Zggq_RYsdLNiC-15" value="apellido1" style="text;html=1;strokeColor=none;fillColor=none;align=center;verticalAlign=middle;whiteSpace=wrap;rounded=0;" parent="1" vertex="1">
          <mxGeometry x="404" y="100" width="60" height="30" as="geometry" />
        </mxCell>
        <mxCell id="TbbzOK-Zggq_RYsdLNiC-16" value="apellido2" style="text;html=1;strokeColor=none;fillColor=none;align=center;verticalAlign=middle;whiteSpace=wrap;rounded=0;" parent="1" vertex="1">
          <mxGeometry x="480" y="115" width="60" height="30" as="geometry" />
        </mxCell>
        <mxCell id="TbbzOK-Zggq_RYsdLNiC-17" value="" style="ellipse;whiteSpace=wrap;html=1;aspect=fixed;" parent="1" vertex="1">
          <mxGeometry x="504" y="160" width="40" height="40" as="geometry" />
        </mxCell>
        <mxCell id="TbbzOK-Zggq_RYsdLNiC-18" value="fecha_nacimiento" style="text;html=1;strokeColor=none;fillColor=none;align=center;verticalAlign=middle;whiteSpace=wrap;rounded=0;" parent="1" vertex="1">
          <mxGeometry x="560" y="145" width="60" height="30" as="geometry" />
        </mxCell>
        <mxCell id="TbbzOK-Zggq_RYsdLNiC-19" value="" style="endArrow=none;html=1;rounded=0;entryX=0.5;entryY=1;entryDx=0;entryDy=0;exitX=1;exitY=0;exitDx=0;exitDy=0;" parent="1" source="TbbzOK-Zggq_RYsdLNiC-2" target="TbbzOK-Zggq_RYsdLNiC-17" edge="1">
          <mxGeometry width="50" height="50" relative="1" as="geometry">
            <mxPoint x="430" y="280" as="sourcePoint" />
            <mxPoint x="480" y="230" as="targetPoint" />
          </mxGeometry>
        </mxCell>
        <mxCell id="TbbzOK-Zggq_RYsdLNiC-22" value="" style="ellipse;whiteSpace=wrap;html=1;aspect=fixed;" parent="1" vertex="1">
          <mxGeometry x="345" y="125" width="40" height="40" as="geometry" />
        </mxCell>
        <mxCell id="TbbzOK-Zggq_RYsdLNiC-23" value="" style="endArrow=none;html=1;rounded=0;entryX=0.5;entryY=1;entryDx=0;entryDy=0;exitX=0.167;exitY=0;exitDx=0;exitDy=0;exitPerimeter=0;" parent="1" source="TbbzOK-Zggq_RYsdLNiC-2" target="TbbzOK-Zggq_RYsdLNiC-22" edge="1">
          <mxGeometry width="50" height="50" relative="1" as="geometry">
            <mxPoint x="370" y="260" as="sourcePoint" />
            <mxPoint x="420" y="210" as="targetPoint" />
          </mxGeometry>
        </mxCell>
        <mxCell id="TbbzOK-Zggq_RYsdLNiC-30" value="direccion" style="text;html=1;strokeColor=none;fillColor=none;align=center;verticalAlign=middle;whiteSpace=wrap;rounded=0;" parent="1" vertex="1">
          <mxGeometry x="364" y="160" width="60" height="30" as="geometry" />
        </mxCell>
        <mxCell id="TbbzOK-Zggq_RYsdLNiC-31" value="Text" style="text;html=1;strokeColor=none;fillColor=none;align=center;verticalAlign=middle;whiteSpace=wrap;rounded=0;" parent="1" vertex="1">
          <mxGeometry x="260" y="-20" width="60" height="30" as="geometry" />
        </mxCell>
        <mxCell id="TbbzOK-Zggq_RYsdLNiC-33" value="telefono" style="ellipse;whiteSpace=wrap;html=1;align=center;dashed=1;" parent="1" vertex="1">
          <mxGeometry x="544" y="180" width="40" height="40" as="geometry" />
        </mxCell>
        <mxCell id="TbbzOK-Zggq_RYsdLNiC-34" value="" style="endArrow=none;html=1;rounded=0;entryX=0;entryY=1;entryDx=0;entryDy=0;exitX=1;exitY=0.25;exitDx=0;exitDy=0;" parent="1" source="TbbzOK-Zggq_RYsdLNiC-2" target="TbbzOK-Zggq_RYsdLNiC-33" edge="1">
          <mxGeometry width="50" height="50" relative="1" as="geometry">
            <mxPoint x="500" y="310" as="sourcePoint" />
            <mxPoint x="550" y="260" as="targetPoint" />
          </mxGeometry>
        </mxCell>
        <mxCell id="TbbzOK-Zggq_RYsdLNiC-35" value="" style="ellipse;whiteSpace=wrap;html=1;aspect=fixed;" parent="1" vertex="1">
          <mxGeometry x="250" y="180" width="40" height="40" as="geometry" />
        </mxCell>
        <mxCell id="TbbzOK-Zggq_RYsdLNiC-37" value="" style="endArrow=none;html=1;rounded=0;entryX=0;entryY=0.25;entryDx=0;entryDy=0;exitX=1;exitY=1;exitDx=0;exitDy=0;" parent="1" source="TbbzOK-Zggq_RYsdLNiC-35" target="TbbzOK-Zggq_RYsdLNiC-2" edge="1">
          <mxGeometry width="50" height="50" relative="1" as="geometry">
            <mxPoint x="310" y="290" as="sourcePoint" />
            <mxPoint x="360" y="240" as="targetPoint" />
          </mxGeometry>
        </mxCell>
        <mxCell id="TbbzOK-Zggq_RYsdLNiC-38" value="estrato" style="text;html=1;strokeColor=none;fillColor=none;align=center;verticalAlign=middle;whiteSpace=wrap;rounded=0;" parent="1" vertex="1">
          <mxGeometry x="200" y="175" width="60" height="30" as="geometry" />
        </mxCell>
        <mxCell id="TbbzOK-Zggq_RYsdLNiC-39" value="" style="ellipse;whiteSpace=wrap;html=1;aspect=fixed;" parent="1" vertex="1">
          <mxGeometry x="280" y="100" width="40" height="40" as="geometry" />
        </mxCell>
        <mxCell id="TbbzOK-Zggq_RYsdLNiC-40" value="" style="endArrow=none;html=1;rounded=0;entryX=0.124;entryY=-0.001;entryDx=0;entryDy=0;entryPerimeter=0;exitX=1;exitY=1;exitDx=0;exitDy=0;" parent="1" source="TbbzOK-Zggq_RYsdLNiC-39" target="TbbzOK-Zggq_RYsdLNiC-2" edge="1">
          <mxGeometry width="50" height="50" relative="1" as="geometry">
            <mxPoint x="330" y="250" as="sourcePoint" />
            <mxPoint x="380" y="200" as="targetPoint" />
          </mxGeometry>
        </mxCell>
        <mxCell id="TbbzOK-Zggq_RYsdLNiC-41" value="curso" style="text;html=1;strokeColor=none;fillColor=none;align=center;verticalAlign=middle;whiteSpace=wrap;rounded=0;" parent="1" vertex="1">
          <mxGeometry x="290" y="80" width="60" height="30" as="geometry" />
        </mxCell>
        <mxCell id="TbbzOK-Zggq_RYsdLNiC-42" value="" style="ellipse;whiteSpace=wrap;html=1;aspect=fixed;" parent="1" vertex="1">
          <mxGeometry x="364" y="60" width="40" height="40" as="geometry" />
        </mxCell>
        <mxCell id="TbbzOK-Zggq_RYsdLNiC-43" value="" style="endArrow=none;html=1;rounded=0;entryX=0.5;entryY=1;entryDx=0;entryDy=0;exitX=0.333;exitY=0;exitDx=0;exitDy=0;exitPerimeter=0;" parent="1" source="TbbzOK-Zggq_RYsdLNiC-2" target="TbbzOK-Zggq_RYsdLNiC-42" edge="1">
          <mxGeometry width="50" height="50" relative="1" as="geometry">
            <mxPoint x="350" y="160" as="sourcePoint" />
            <mxPoint x="400" y="110" as="targetPoint" />
          </mxGeometry>
        </mxCell>
        <mxCell id="TbbzOK-Zggq_RYsdLNiC-45" value="fecha_de_matricula" style="text;html=1;strokeColor=none;fillColor=none;align=center;verticalAlign=middle;whiteSpace=wrap;rounded=0;" parent="1" vertex="1">
          <mxGeometry x="374" y="40" width="60" height="30" as="geometry" />
        </mxCell>
        <mxCell id="TbbzOK-Zggq_RYsdLNiC-46" value="" style="rhombus;whiteSpace=wrap;html=1;" parent="1" vertex="1">
          <mxGeometry x="560" y="205" width="114" height="70" as="geometry" />
        </mxCell>
        <mxCell id="TbbzOK-Zggq_RYsdLNiC-48" value="" style="endArrow=none;html=1;rounded=0;entryX=0;entryY=0.5;entryDx=0;entryDy=0;" parent="1" target="TbbzOK-Zggq_RYsdLNiC-46" edge="1">
          <mxGeometry width="50" height="50" relative="1" as="geometry">
            <mxPoint x="470" y="240" as="sourcePoint" />
            <mxPoint x="550" y="240" as="targetPoint" />
          </mxGeometry>
        </mxCell>
        <mxCell id="TbbzOK-Zggq_RYsdLNiC-49" value="tiene" style="text;html=1;strokeColor=none;fillColor=none;align=center;verticalAlign=middle;whiteSpace=wrap;rounded=0;" parent="1" vertex="1">
          <mxGeometry x="587" y="225" width="60" height="30" as="geometry" />
        </mxCell>
        <mxCell id="TbbzOK-Zggq_RYsdLNiC-50" value="" style="rounded=0;whiteSpace=wrap;html=1;" parent="1" vertex="1">
          <mxGeometry x="740" y="210" width="120" height="60" as="geometry" />
        </mxCell>
        <mxCell id="TbbzOK-Zggq_RYsdLNiC-51" value="centrofromacion" style="text;html=1;strokeColor=none;fillColor=none;align=center;verticalAlign=middle;whiteSpace=wrap;rounded=0;" parent="1" vertex="1">
          <mxGeometry x="770" y="225" width="60" height="30" as="geometry" />
        </mxCell>
        <mxCell id="TbbzOK-Zggq_RYsdLNiC-52" value="" style="endArrow=none;html=1;rounded=0;entryX=0;entryY=0.5;entryDx=0;entryDy=0;exitX=1;exitY=0.5;exitDx=0;exitDy=0;" parent="1" source="TbbzOK-Zggq_RYsdLNiC-46" target="TbbzOK-Zggq_RYsdLNiC-50" edge="1">
          <mxGeometry width="50" height="50" relative="1" as="geometry">
            <mxPoint x="660" y="300" as="sourcePoint" />
            <mxPoint x="710" y="250" as="targetPoint" />
          </mxGeometry>
        </mxCell>
        <mxCell id="TbbzOK-Zggq_RYsdLNiC-53" value="" style="ellipse;whiteSpace=wrap;html=1;aspect=fixed;" parent="1" vertex="1">
          <mxGeometry x="720" y="145" width="40" height="40" as="geometry" />
        </mxCell>
        <mxCell id="TbbzOK-Zggq_RYsdLNiC-54" value="" style="endArrow=none;html=1;rounded=0;entryX=0.5;entryY=1;entryDx=0;entryDy=0;exitX=0.11;exitY=0.026;exitDx=0;exitDy=0;exitPerimeter=0;" parent="1" source="TbbzOK-Zggq_RYsdLNiC-50" target="TbbzOK-Zggq_RYsdLNiC-53" edge="1">
          <mxGeometry width="50" height="50" relative="1" as="geometry">
            <mxPoint x="700" y="260" as="sourcePoint" />
            <mxPoint x="750" y="210" as="targetPoint" />
          </mxGeometry>
        </mxCell>
        <mxCell id="TbbzOK-Zggq_RYsdLNiC-55" value="codigo_centro" style="text;html=1;strokeColor=none;fillColor=none;align=center;verticalAlign=middle;whiteSpace=wrap;rounded=0;" parent="1" vertex="1">
          <mxGeometry x="695" y="110" width="60" height="30" as="geometry" />
        </mxCell>
        <mxCell id="TbbzOK-Zggq_RYsdLNiC-56" value="" style="ellipse;whiteSpace=wrap;html=1;aspect=fixed;" parent="1" vertex="1">
          <mxGeometry x="725" y="150" width="30" height="30" as="geometry" />
        </mxCell>
        <mxCell id="TbbzOK-Zggq_RYsdLNiC-57" value="" style="ellipse;whiteSpace=wrap;html=1;aspect=fixed;" parent="1" vertex="1">
          <mxGeometry x="770" y="145" width="40" height="40" as="geometry" />
        </mxCell>
        <mxCell id="TbbzOK-Zggq_RYsdLNiC-59" value="regional" style="text;html=1;strokeColor=none;fillColor=none;align=center;verticalAlign=middle;whiteSpace=wrap;rounded=0;" parent="1" vertex="1">
          <mxGeometry x="770" y="115" width="60" height="30" as="geometry" />
        </mxCell>
        <mxCell id="TbbzOK-Zggq_RYsdLNiC-60" value="" style="endArrow=none;html=1;rounded=0;entryX=0.5;entryY=1;entryDx=0;entryDy=0;" parent="1" source="TbbzOK-Zggq_RYsdLNiC-50" target="TbbzOK-Zggq_RYsdLNiC-57" edge="1">
          <mxGeometry width="50" height="50" relative="1" as="geometry">
            <mxPoint x="740" y="250" as="sourcePoint" />
            <mxPoint x="790" y="200" as="targetPoint" />
          </mxGeometry>
        </mxCell>
        <mxCell id="TbbzOK-Zggq_RYsdLNiC-61" value="" style="ellipse;whiteSpace=wrap;html=1;aspect=fixed;" parent="1" vertex="1">
          <mxGeometry x="840" y="145" width="40" height="40" as="geometry" />
        </mxCell>
        <mxCell id="TbbzOK-Zggq_RYsdLNiC-62" value="" style="endArrow=none;html=1;rounded=0;exitX=0.75;exitY=0;exitDx=0;exitDy=0;" parent="1" source="TbbzOK-Zggq_RYsdLNiC-50" edge="1">
          <mxGeometry width="50" height="50" relative="1" as="geometry">
            <mxPoint x="800" y="230" as="sourcePoint" />
            <mxPoint x="850" y="180" as="targetPoint" />
          </mxGeometry>
        </mxCell>
        <mxCell id="TbbzOK-Zggq_RYsdLNiC-63" value="nombre" style="text;html=1;strokeColor=none;fillColor=none;align=center;verticalAlign=middle;whiteSpace=wrap;rounded=0;" parent="1" vertex="1">
          <mxGeometry x="850" y="115" width="60" height="30" as="geometry" />
        </mxCell>
        <mxCell id="TbbzOK-Zggq_RYsdLNiC-64" value="" style="rhombus;whiteSpace=wrap;html=1;" parent="1" vertex="1">
          <mxGeometry x="742.5" y="310" width="115" height="70" as="geometry" />
        </mxCell>
        <mxCell id="TbbzOK-Zggq_RYsdLNiC-65" value="" style="endArrow=none;html=1;rounded=0;entryX=0.5;entryY=1;entryDx=0;entryDy=0;exitX=0.5;exitY=0;exitDx=0;exitDy=0;" parent="1" source="TbbzOK-Zggq_RYsdLNiC-64" target="TbbzOK-Zggq_RYsdLNiC-50" edge="1">
          <mxGeometry width="50" height="50" relative="1" as="geometry">
            <mxPoint x="800" y="300" as="sourcePoint" />
            <mxPoint x="810" y="270" as="targetPoint" />
          </mxGeometry>
        </mxCell>
        <mxCell id="TbbzOK-Zggq_RYsdLNiC-66" value="posee" style="text;html=1;strokeColor=none;fillColor=none;align=center;verticalAlign=middle;whiteSpace=wrap;rounded=0;" parent="1" vertex="1">
          <mxGeometry x="770" y="330" width="60" height="30" as="geometry" />
        </mxCell>
        <mxCell id="TbbzOK-Zggq_RYsdLNiC-67" value="" style="rounded=0;whiteSpace=wrap;html=1;" parent="1" vertex="1">
          <mxGeometry x="740" y="430" width="120" height="60" as="geometry" />
        </mxCell>
        <mxCell id="TbbzOK-Zggq_RYsdLNiC-68" value="" style="endArrow=none;html=1;rounded=0;entryX=0.5;entryY=1;entryDx=0;entryDy=0;exitX=0.5;exitY=0;exitDx=0;exitDy=0;" parent="1" source="TbbzOK-Zggq_RYsdLNiC-67" target="TbbzOK-Zggq_RYsdLNiC-64" edge="1">
          <mxGeometry width="50" height="50" relative="1" as="geometry">
            <mxPoint x="760" y="430" as="sourcePoint" />
            <mxPoint x="810" y="380" as="targetPoint" />
          </mxGeometry>
        </mxCell>
        <mxCell id="TbbzOK-Zggq_RYsdLNiC-69" value="curso" style="text;html=1;strokeColor=none;fillColor=none;align=center;verticalAlign=middle;whiteSpace=wrap;rounded=0;" parent="1" vertex="1">
          <mxGeometry x="770" y="445" width="60" height="30" as="geometry" />
        </mxCell>
        <mxCell id="TbbzOK-Zggq_RYsdLNiC-70" value="codigo" style="text;html=1;strokeColor=none;fillColor=none;align=center;verticalAlign=middle;whiteSpace=wrap;rounded=0;" parent="1" vertex="1">
          <mxGeometry x="695" y="530" width="60" height="30" as="geometry" />
        </mxCell>
        <mxCell id="TbbzOK-Zggq_RYsdLNiC-71" value="" style="ellipse;whiteSpace=wrap;html=1;aspect=fixed;" parent="1" vertex="1">
          <mxGeometry x="720" y="500" width="40" height="40" as="geometry" />
        </mxCell>
        <mxCell id="TbbzOK-Zggq_RYsdLNiC-72" value="" style="endArrow=none;html=1;rounded=0;entryX=0;entryY=1;entryDx=0;entryDy=0;exitX=0.5;exitY=0;exitDx=0;exitDy=0;" parent="1" source="TbbzOK-Zggq_RYsdLNiC-71" target="TbbzOK-Zggq_RYsdLNiC-67" edge="1">
          <mxGeometry width="50" height="50" relative="1" as="geometry">
            <mxPoint x="640" y="530" as="sourcePoint" />
            <mxPoint x="690" y="480" as="targetPoint" />
          </mxGeometry>
        </mxCell>
        <mxCell id="TbbzOK-Zggq_RYsdLNiC-73" value="" style="ellipse;whiteSpace=wrap;html=1;aspect=fixed;" parent="1" vertex="1">
          <mxGeometry x="770" y="525" width="40" height="40" as="geometry" />
        </mxCell>
        <mxCell id="TbbzOK-Zggq_RYsdLNiC-74" value="nombre" style="text;html=1;strokeColor=none;fillColor=none;align=center;verticalAlign=middle;whiteSpace=wrap;rounded=0;" parent="1" vertex="1">
          <mxGeometry x="770" y="565" width="60" height="30" as="geometry" />
        </mxCell>
        <mxCell id="TbbzOK-Zggq_RYsdLNiC-75" value="" style="endArrow=none;html=1;rounded=0;entryX=0.417;entryY=1;entryDx=0;entryDy=0;entryPerimeter=0;exitX=0.5;exitY=0;exitDx=0;exitDy=0;" parent="1" source="TbbzOK-Zggq_RYsdLNiC-73" target="TbbzOK-Zggq_RYsdLNiC-67" edge="1">
          <mxGeometry width="50" height="50" relative="1" as="geometry">
            <mxPoint x="750" y="540" as="sourcePoint" />
            <mxPoint x="800" y="490" as="targetPoint" />
          </mxGeometry>
        </mxCell>
        <mxCell id="TbbzOK-Zggq_RYsdLNiC-76" value="" style="rhombus;whiteSpace=wrap;html=1;" parent="1" vertex="1">
          <mxGeometry x="930" y="205" width="115" height="70" as="geometry" />
        </mxCell>
        <mxCell id="TbbzOK-Zggq_RYsdLNiC-77" value="tiene" style="text;html=1;strokeColor=none;fillColor=none;align=center;verticalAlign=middle;whiteSpace=wrap;rounded=0;" parent="1" vertex="1">
          <mxGeometry x="958" y="225" width="60" height="30" as="geometry" />
        </mxCell>
        <mxCell id="TbbzOK-Zggq_RYsdLNiC-78" value="" style="endArrow=none;html=1;rounded=0;entryX=0;entryY=0.5;entryDx=0;entryDy=0;exitX=1;exitY=0.5;exitDx=0;exitDy=0;" parent="1" source="TbbzOK-Zggq_RYsdLNiC-50" target="TbbzOK-Zggq_RYsdLNiC-76" edge="1">
          <mxGeometry width="50" height="50" relative="1" as="geometry">
            <mxPoint x="860" y="290" as="sourcePoint" />
            <mxPoint x="910" y="240" as="targetPoint" />
          </mxGeometry>
        </mxCell>
        <mxCell id="TbbzOK-Zggq_RYsdLNiC-79" value="" style="rounded=0;whiteSpace=wrap;html=1;" parent="1" vertex="1">
          <mxGeometry x="1110" y="210" width="120" height="60" as="geometry" />
        </mxCell>
        <mxCell id="TbbzOK-Zggq_RYsdLNiC-80" value="" style="endArrow=none;html=1;rounded=0;entryX=0;entryY=0.5;entryDx=0;entryDy=0;exitX=1;exitY=0.5;exitDx=0;exitDy=0;" parent="1" source="TbbzOK-Zggq_RYsdLNiC-76" target="TbbzOK-Zggq_RYsdLNiC-79" edge="1">
          <mxGeometry width="50" height="50" relative="1" as="geometry">
            <mxPoint x="1030" y="300" as="sourcePoint" />
            <mxPoint x="1080" y="250" as="targetPoint" />
          </mxGeometry>
        </mxCell>
        <mxCell id="TbbzOK-Zggq_RYsdLNiC-81" value="instructor" style="text;html=1;strokeColor=none;fillColor=none;align=center;verticalAlign=middle;whiteSpace=wrap;rounded=0;" parent="1" vertex="1">
          <mxGeometry x="1140" y="225" width="60" height="30" as="geometry" />
        </mxCell>
        <mxCell id="TbbzOK-Zggq_RYsdLNiC-82" value="" style="ellipse;whiteSpace=wrap;html=1;aspect=fixed;" parent="1" vertex="1">
          <mxGeometry x="1100" y="135" width="40" height="40" as="geometry" />
        </mxCell>
        <mxCell id="TbbzOK-Zggq_RYsdLNiC-83" value="" style="endArrow=none;html=1;rounded=0;entryX=0.5;entryY=1;entryDx=0;entryDy=0;" parent="1" target="TbbzOK-Zggq_RYsdLNiC-82" edge="1">
          <mxGeometry width="50" height="50" relative="1" as="geometry">
            <mxPoint x="1120" y="210" as="sourcePoint" />
            <mxPoint x="1090" y="150" as="targetPoint" />
          </mxGeometry>
        </mxCell>
        <mxCell id="TbbzOK-Zggq_RYsdLNiC-84" value="id_instructor" style="text;html=1;strokeColor=none;fillColor=none;align=center;verticalAlign=middle;whiteSpace=wrap;rounded=0;" parent="1" vertex="1">
          <mxGeometry x="1070" y="115" width="60" height="30" as="geometry" />
        </mxCell>
        <mxCell id="TbbzOK-Zggq_RYsdLNiC-85" value="" style="ellipse;whiteSpace=wrap;html=1;aspect=fixed;" parent="1" vertex="1">
          <mxGeometry x="1170" y="155" width="40" height="40" as="geometry" />
        </mxCell>
        <mxCell id="TbbzOK-Zggq_RYsdLNiC-86" value="" style="ellipse;whiteSpace=wrap;html=1;aspect=fixed;" parent="1" vertex="1">
          <mxGeometry x="1160" y="100" width="40" height="40" as="geometry" />
        </mxCell>
        <mxCell id="TbbzOK-Zggq_RYsdLNiC-87" value="" style="ellipse;whiteSpace=wrap;html=1;aspect=fixed;" parent="1" vertex="1">
          <mxGeometry x="1210" y="115" width="40" height="40" as="geometry" />
        </mxCell>
        <mxCell id="TbbzOK-Zggq_RYsdLNiC-88" value="" style="endArrow=none;html=1;rounded=0;entryX=0.5;entryY=1;entryDx=0;entryDy=0;exitX=0.624;exitY=0.013;exitDx=0;exitDy=0;exitPerimeter=0;" parent="1" source="TbbzOK-Zggq_RYsdLNiC-79" target="TbbzOK-Zggq_RYsdLNiC-85" edge="1">
          <mxGeometry width="50" height="50" relative="1" as="geometry">
            <mxPoint x="1120" y="240" as="sourcePoint" />
            <mxPoint x="1170" y="190" as="targetPoint" />
          </mxGeometry>
        </mxCell>
        <mxCell id="TbbzOK-Zggq_RYsdLNiC-89" value="" style="endArrow=none;html=1;rounded=0;entryX=0;entryY=1;entryDx=0;entryDy=0;exitX=1;exitY=0;exitDx=0;exitDy=0;" parent="1" source="TbbzOK-Zggq_RYsdLNiC-85" target="TbbzOK-Zggq_RYsdLNiC-87" edge="1">
          <mxGeometry width="50" height="50" relative="1" as="geometry">
            <mxPoint x="1190" y="210" as="sourcePoint" />
            <mxPoint x="1240" y="160" as="targetPoint" />
          </mxGeometry>
        </mxCell>
        <mxCell id="TbbzOK-Zggq_RYsdLNiC-90" value="" style="endArrow=none;html=1;rounded=0;entryX=0.5;entryY=1;entryDx=0;entryDy=0;exitX=0;exitY=0;exitDx=0;exitDy=0;" parent="1" source="TbbzOK-Zggq_RYsdLNiC-85" target="TbbzOK-Zggq_RYsdLNiC-86" edge="1">
          <mxGeometry width="50" height="50" relative="1" as="geometry">
            <mxPoint x="1150" y="200" as="sourcePoint" />
            <mxPoint x="1200" y="150" as="targetPoint" />
          </mxGeometry>
        </mxCell>
        <mxCell id="TbbzOK-Zggq_RYsdLNiC-91" value="nombre" style="text;html=1;strokeColor=none;fillColor=none;align=center;verticalAlign=middle;whiteSpace=wrap;rounded=0;" parent="1" vertex="1">
          <mxGeometry x="1200" y="175" width="60" height="30" as="geometry" />
        </mxCell>
        <mxCell id="TbbzOK-Zggq_RYsdLNiC-92" value="apellido1" style="text;html=1;strokeColor=none;fillColor=none;align=center;verticalAlign=middle;whiteSpace=wrap;rounded=0;" parent="1" vertex="1">
          <mxGeometry x="1120" y="80" width="60" height="30" as="geometry" />
        </mxCell>
        <mxCell id="TbbzOK-Zggq_RYsdLNiC-93" value="apellido2" style="text;html=1;strokeColor=none;fillColor=none;align=center;verticalAlign=middle;whiteSpace=wrap;rounded=0;" parent="1" vertex="1">
          <mxGeometry x="1220" y="85" width="60" height="30" as="geometry" />
        </mxCell>
        <mxCell id="TbbzOK-Zggq_RYsdLNiC-94" value="" style="ellipse;whiteSpace=wrap;html=1;aspect=fixed;" parent="1" vertex="1">
          <mxGeometry x="1260" y="150" width="40" height="40" as="geometry" />
        </mxCell>
        <mxCell id="TbbzOK-Zggq_RYsdLNiC-95" value="" style="endArrow=none;html=1;rounded=0;entryX=0;entryY=1;entryDx=0;entryDy=0;exitX=1;exitY=0.25;exitDx=0;exitDy=0;" parent="1" source="TbbzOK-Zggq_RYsdLNiC-79" target="TbbzOK-Zggq_RYsdLNiC-94" edge="1">
          <mxGeometry width="50" height="50" relative="1" as="geometry">
            <mxPoint x="1220" y="290" as="sourcePoint" />
            <mxPoint x="1270" y="240" as="targetPoint" />
          </mxGeometry>
        </mxCell>
        <mxCell id="TbbzOK-Zggq_RYsdLNiC-96" value="codigo_centro" style="text;html=1;strokeColor=none;fillColor=none;align=center;verticalAlign=middle;whiteSpace=wrap;rounded=0;" parent="1" vertex="1">
          <mxGeometry x="1280" y="125" width="60" height="30" as="geometry" />
        </mxCell>
        <mxCell id="TbbzOK-Zggq_RYsdLNiC-97" value="" style="ellipse;whiteSpace=wrap;html=1;aspect=fixed;" parent="1" vertex="1">
          <mxGeometry x="1045" y="150" width="40" height="40" as="geometry" />
        </mxCell>
        <mxCell id="TbbzOK-Zggq_RYsdLNiC-98" value="" style="endArrow=none;html=1;rounded=0;entryX=0;entryY=0;entryDx=0;entryDy=0;exitX=1;exitY=1;exitDx=0;exitDy=0;" parent="1" source="TbbzOK-Zggq_RYsdLNiC-97" target="TbbzOK-Zggq_RYsdLNiC-79" edge="1">
          <mxGeometry width="50" height="50" relative="1" as="geometry">
            <mxPoint x="1060" y="250" as="sourcePoint" />
            <mxPoint x="1110" y="200" as="targetPoint" />
          </mxGeometry>
        </mxCell>
        <mxCell id="TbbzOK-Zggq_RYsdLNiC-99" value="codigo_curso" style="text;html=1;strokeColor=none;fillColor=none;align=center;verticalAlign=middle;whiteSpace=wrap;rounded=0;" parent="1" vertex="1">
          <mxGeometry x="985" y="135" width="60" height="30" as="geometry" />
        </mxCell>
        <mxCell id="TbbzOK-Zggq_RYsdLNiC-100" value="" style="rhombus;whiteSpace=wrap;html=1;" parent="1" vertex="1">
          <mxGeometry x="348" y="330" width="124" height="80" as="geometry" />
        </mxCell>
        <mxCell id="TbbzOK-Zggq_RYsdLNiC-101" value="" style="endArrow=none;html=1;rounded=0;entryX=0.5;entryY=1;entryDx=0;entryDy=0;exitX=0.5;exitY=0;exitDx=0;exitDy=0;" parent="1" source="TbbzOK-Zggq_RYsdLNiC-100" target="TbbzOK-Zggq_RYsdLNiC-2" edge="1">
          <mxGeometry width="50" height="50" relative="1" as="geometry">
            <mxPoint x="350" y="340" as="sourcePoint" />
            <mxPoint x="400" y="290" as="targetPoint" />
          </mxGeometry>
        </mxCell>
        <mxCell id="TbbzOK-Zggq_RYsdLNiC-102" value="tiene" style="text;html=1;strokeColor=none;fillColor=none;align=center;verticalAlign=middle;whiteSpace=wrap;rounded=0;" parent="1" vertex="1">
          <mxGeometry x="380" y="355" width="60" height="30" as="geometry" />
        </mxCell>
        <mxCell id="TbbzOK-Zggq_RYsdLNiC-103" value="" style="ellipse;whiteSpace=wrap;html=1;aspect=fixed;" parent="1" vertex="1">
          <mxGeometry x="725" y="505" width="30" height="30" as="geometry" />
        </mxCell>
        <mxCell id="TbbzOK-Zggq_RYsdLNiC-104" value="" style="ellipse;whiteSpace=wrap;html=1;aspect=fixed;" parent="1" vertex="1">
          <mxGeometry x="830" y="510" width="40" height="40" as="geometry" />
        </mxCell>
        <mxCell id="TbbzOK-Zggq_RYsdLNiC-105" value="" style="endArrow=none;html=1;rounded=0;entryX=0;entryY=0;entryDx=0;entryDy=0;exitX=0.75;exitY=1;exitDx=0;exitDy=0;" parent="1" source="TbbzOK-Zggq_RYsdLNiC-67" target="TbbzOK-Zggq_RYsdLNiC-104" edge="1">
          <mxGeometry width="50" height="50" relative="1" as="geometry">
            <mxPoint x="755" y="570" as="sourcePoint" />
            <mxPoint x="825.7106781186548" y="520" as="targetPoint" />
          </mxGeometry>
        </mxCell>
        <mxCell id="TbbzOK-Zggq_RYsdLNiC-106" value="codigo_centro" style="text;html=1;strokeColor=none;fillColor=none;align=center;verticalAlign=middle;whiteSpace=wrap;rounded=0;" parent="1" vertex="1">
          <mxGeometry x="858" y="490" width="60" height="30" as="geometry" />
        </mxCell>
        <mxCell id="TbbzOK-Zggq_RYsdLNiC-107" value="" style="endArrow=none;html=1;rounded=0;entryX=0.5;entryY=1;entryDx=0;entryDy=0;" parent="1" target="TbbzOK-Zggq_RYsdLNiC-100" edge="1">
          <mxGeometry width="50" height="50" relative="1" as="geometry">
            <mxPoint x="410" y="450" as="sourcePoint" />
            <mxPoint x="460" y="450" as="targetPoint" />
          </mxGeometry>
        </mxCell>
        <mxCell id="TbbzOK-Zggq_RYsdLNiC-108" value="" style="rounded=0;whiteSpace=wrap;html=1;" parent="1" vertex="1">
          <mxGeometry x="350" y="450" width="120" height="60" as="geometry" />
        </mxCell>
        <mxCell id="TbbzOK-Zggq_RYsdLNiC-109" value="patrocinio" style="text;html=1;strokeColor=none;fillColor=none;align=center;verticalAlign=middle;whiteSpace=wrap;rounded=0;" parent="1" vertex="1">
          <mxGeometry x="374" y="465" width="60" height="30" as="geometry" />
        </mxCell>
        <mxCell id="TbbzOK-Zggq_RYsdLNiC-110" value="" style="rhombus;whiteSpace=wrap;html=1;" parent="1" vertex="1">
          <mxGeometry x="350" y="535" width="120" height="80" as="geometry" />
        </mxCell>
        <mxCell id="TbbzOK-Zggq_RYsdLNiC-111" value="" style="endArrow=none;html=1;rounded=0;" parent="1" source="TbbzOK-Zggq_RYsdLNiC-110" edge="1">
          <mxGeometry width="50" height="50" relative="1" as="geometry">
            <mxPoint x="360" y="560" as="sourcePoint" />
            <mxPoint x="410" y="510" as="targetPoint" />
          </mxGeometry>
        </mxCell>
        <mxCell id="TbbzOK-Zggq_RYsdLNiC-113" value="" style="ellipse;whiteSpace=wrap;html=1;aspect=fixed;" parent="1" vertex="1">
          <mxGeometry x="308" y="405" width="40" height="40" as="geometry" />
        </mxCell>
        <mxCell id="TbbzOK-Zggq_RYsdLNiC-114" value="" style="endArrow=none;html=1;rounded=0;entryX=0;entryY=0;entryDx=0;entryDy=0;exitX=1;exitY=1;exitDx=0;exitDy=0;" parent="1" source="TbbzOK-Zggq_RYsdLNiC-113" target="TbbzOK-Zggq_RYsdLNiC-108" edge="1">
          <mxGeometry width="50" height="50" relative="1" as="geometry">
            <mxPoint x="260" y="520" as="sourcePoint" />
            <mxPoint x="310" y="470" as="targetPoint" />
          </mxGeometry>
        </mxCell>
        <mxCell id="TbbzOK-Zggq_RYsdLNiC-115" value="codigo_patrocinio" style="text;html=1;strokeColor=none;fillColor=none;align=center;verticalAlign=middle;whiteSpace=wrap;rounded=0;" parent="1" vertex="1">
          <mxGeometry x="288" y="375" width="60" height="30" as="geometry" />
        </mxCell>
        <mxCell id="TbbzOK-Zggq_RYsdLNiC-116" value="" style="ellipse;whiteSpace=wrap;html=1;aspect=fixed;" parent="1" vertex="1">
          <mxGeometry x="454" y="385" width="40" height="40" as="geometry" />
        </mxCell>
        <mxCell id="TbbzOK-Zggq_RYsdLNiC-117" value="" style="endArrow=none;html=1;rounded=0;entryX=0;entryY=1;entryDx=0;entryDy=0;exitX=0.75;exitY=0;exitDx=0;exitDy=0;" parent="1" source="TbbzOK-Zggq_RYsdLNiC-108" target="TbbzOK-Zggq_RYsdLNiC-116" edge="1">
          <mxGeometry width="50" height="50" relative="1" as="geometry">
            <mxPoint x="420" y="480" as="sourcePoint" />
            <mxPoint x="470" y="430" as="targetPoint" />
          </mxGeometry>
        </mxCell>
        <mxCell id="TbbzOK-Zggq_RYsdLNiC-118" value="fecha_inicio" style="text;html=1;strokeColor=none;fillColor=none;align=center;verticalAlign=middle;whiteSpace=wrap;rounded=0;" parent="1" vertex="1">
          <mxGeometry x="472" y="425" width="60" height="30" as="geometry" />
        </mxCell>
        <mxCell id="TbbzOK-Zggq_RYsdLNiC-119" value="" style="ellipse;whiteSpace=wrap;html=1;aspect=fixed;" parent="1" vertex="1">
          <mxGeometry x="260" y="440" width="40" height="40" as="geometry" />
        </mxCell>
        <mxCell id="TbbzOK-Zggq_RYsdLNiC-120" value="" style="endArrow=none;html=1;rounded=0;entryX=0;entryY=0.25;entryDx=0;entryDy=0;exitX=1;exitY=1;exitDx=0;exitDy=0;" parent="1" source="TbbzOK-Zggq_RYsdLNiC-119" target="TbbzOK-Zggq_RYsdLNiC-108" edge="1">
          <mxGeometry width="50" height="50" relative="1" as="geometry">
            <mxPoint x="270" y="540" as="sourcePoint" />
            <mxPoint x="320" y="490" as="targetPoint" />
          </mxGeometry>
        </mxCell>
        <mxCell id="TbbzOK-Zggq_RYsdLNiC-121" value="fecha_fin" style="text;html=1;strokeColor=none;fillColor=none;align=center;verticalAlign=middle;whiteSpace=wrap;rounded=0;" parent="1" vertex="1">
          <mxGeometry x="220" y="415" width="60" height="30" as="geometry" />
        </mxCell>
        <mxCell id="TbbzOK-Zggq_RYsdLNiC-122" value="posee" style="text;html=1;strokeColor=none;fillColor=none;align=center;verticalAlign=middle;whiteSpace=wrap;rounded=0;" parent="1" vertex="1">
          <mxGeometry x="374" y="560" width="60" height="30" as="geometry" />
        </mxCell>
        <mxCell id="TbbzOK-Zggq_RYsdLNiC-123" value="" style="rounded=0;whiteSpace=wrap;html=1;" parent="1" vertex="1">
          <mxGeometry x="350" y="660" width="120" height="60" as="geometry" />
        </mxCell>
        <mxCell id="TbbzOK-Zggq_RYsdLNiC-124" value="" style="endArrow=none;html=1;rounded=0;entryX=0.5;entryY=1;entryDx=0;entryDy=0;exitX=0.5;exitY=0;exitDx=0;exitDy=0;" parent="1" source="TbbzOK-Zggq_RYsdLNiC-123" target="TbbzOK-Zggq_RYsdLNiC-110" edge="1">
          <mxGeometry width="50" height="50" relative="1" as="geometry">
            <mxPoint x="320" y="670" as="sourcePoint" />
            <mxPoint x="370" y="620" as="targetPoint" />
          </mxGeometry>
        </mxCell>
        <mxCell id="TbbzOK-Zggq_RYsdLNiC-125" value="empresa_patrocinio" style="text;html=1;strokeColor=none;fillColor=none;align=center;verticalAlign=middle;whiteSpace=wrap;rounded=0;" parent="1" vertex="1">
          <mxGeometry x="380" y="675" width="60" height="30" as="geometry" />
        </mxCell>
        <mxCell id="TbbzOK-Zggq_RYsdLNiC-126" value="" style="ellipse;whiteSpace=wrap;html=1;aspect=fixed;" parent="1" vertex="1">
          <mxGeometry x="308" y="600" width="40" height="40" as="geometry" />
        </mxCell>
        <mxCell id="TbbzOK-Zggq_RYsdLNiC-127" value="" style="endArrow=none;html=1;rounded=0;entryX=0;entryY=0;entryDx=0;entryDy=0;exitX=0.5;exitY=1;exitDx=0;exitDy=0;" parent="1" source="TbbzOK-Zggq_RYsdLNiC-126" target="TbbzOK-Zggq_RYsdLNiC-123" edge="1">
          <mxGeometry width="50" height="50" relative="1" as="geometry">
            <mxPoint x="290" y="700" as="sourcePoint" />
            <mxPoint x="340" y="650" as="targetPoint" />
          </mxGeometry>
        </mxCell>
        <mxCell id="TbbzOK-Zggq_RYsdLNiC-128" value="codigo_empresa" style="text;html=1;strokeColor=none;fillColor=none;align=center;verticalAlign=middle;whiteSpace=wrap;rounded=0;" parent="1" vertex="1">
          <mxGeometry x="270" y="580" width="60" height="30" as="geometry" />
        </mxCell>
        <mxCell id="TbbzOK-Zggq_RYsdLNiC-129" value="" style="ellipse;whiteSpace=wrap;html=1;aspect=fixed;" parent="1" vertex="1">
          <mxGeometry x="313" y="605" width="30" height="30" as="geometry" />
        </mxCell>
        <mxCell id="TbbzOK-Zggq_RYsdLNiC-130" value="" style="ellipse;whiteSpace=wrap;html=1;aspect=fixed;" parent="1" vertex="1">
          <mxGeometry x="454" y="595" width="40" height="40" as="geometry" />
        </mxCell>
        <mxCell id="TbbzOK-Zggq_RYsdLNiC-131" value="" style="endArrow=none;html=1;rounded=0;entryX=0;entryY=1;entryDx=0;entryDy=0;exitX=0.75;exitY=0;exitDx=0;exitDy=0;" parent="1" source="TbbzOK-Zggq_RYsdLNiC-123" target="TbbzOK-Zggq_RYsdLNiC-130" edge="1">
          <mxGeometry width="50" height="50" relative="1" as="geometry">
            <mxPoint x="430" y="700" as="sourcePoint" />
            <mxPoint x="480" y="650" as="targetPoint" />
          </mxGeometry>
        </mxCell>
        <mxCell id="TbbzOK-Zggq_RYsdLNiC-132" value="nombre" style="text;html=1;strokeColor=none;fillColor=none;align=center;verticalAlign=middle;whiteSpace=wrap;rounded=0;" parent="1" vertex="1">
          <mxGeometry x="480" y="580" width="60" height="30" as="geometry" />
        </mxCell>
        <mxCell id="TbbzOK-Zggq_RYsdLNiC-134" value="" style="ellipse;whiteSpace=wrap;html=1;aspect=fixed;" parent="1" vertex="1">
          <mxGeometry x="500" y="630" width="40" height="40" as="geometry" />
        </mxCell>
        <mxCell id="TbbzOK-Zggq_RYsdLNiC-136" value="" style="ellipse;whiteSpace=wrap;html=1;aspect=fixed;" parent="1" vertex="1">
          <mxGeometry x="560" y="650" width="40" height="40" as="geometry" />
        </mxCell>
        <mxCell id="TbbzOK-Zggq_RYsdLNiC-137" value="" style="ellipse;whiteSpace=wrap;html=1;aspect=fixed;" parent="1" vertex="1">
          <mxGeometry x="547" y="590" width="40" height="40" as="geometry" />
        </mxCell>
        <mxCell id="TbbzOK-Zggq_RYsdLNiC-138" value="" style="endArrow=none;html=1;rounded=0;entryX=0;entryY=0.5;entryDx=0;entryDy=0;exitX=1;exitY=0.25;exitDx=0;exitDy=0;" parent="1" source="TbbzOK-Zggq_RYsdLNiC-123" target="TbbzOK-Zggq_RYsdLNiC-134" edge="1">
          <mxGeometry width="50" height="50" relative="1" as="geometry">
            <mxPoint x="450" y="770" as="sourcePoint" />
            <mxPoint x="500" y="720" as="targetPoint" />
          </mxGeometry>
        </mxCell>
        <mxCell id="TbbzOK-Zggq_RYsdLNiC-139" value="" style="endArrow=none;html=1;rounded=0;entryX=0;entryY=1;entryDx=0;entryDy=0;exitX=1;exitY=0;exitDx=0;exitDy=0;" parent="1" source="TbbzOK-Zggq_RYsdLNiC-134" target="TbbzOK-Zggq_RYsdLNiC-137" edge="1">
          <mxGeometry width="50" height="50" relative="1" as="geometry">
            <mxPoint x="490" y="650" as="sourcePoint" />
            <mxPoint x="540" y="600" as="targetPoint" />
          </mxGeometry>
        </mxCell>
        <mxCell id="TbbzOK-Zggq_RYsdLNiC-142" value="" style="endArrow=none;html=1;rounded=0;entryX=0;entryY=0.5;entryDx=0;entryDy=0;exitX=1;exitY=1;exitDx=0;exitDy=0;" parent="1" source="TbbzOK-Zggq_RYsdLNiC-134" target="TbbzOK-Zggq_RYsdLNiC-136" edge="1">
          <mxGeometry width="50" height="50" relative="1" as="geometry">
            <mxPoint x="500" y="720" as="sourcePoint" />
            <mxPoint x="550" y="670" as="targetPoint" />
          </mxGeometry>
        </mxCell>
        <mxCell id="TbbzOK-Zggq_RYsdLNiC-143" value="telefonos" style="ellipse;whiteSpace=wrap;html=1;align=center;dashed=1;" parent="1" vertex="1">
          <mxGeometry x="504" y="690" width="36" height="40" as="geometry" />
        </mxCell>
        <mxCell id="TbbzOK-Zggq_RYsdLNiC-144" value="" style="endArrow=none;html=1;rounded=0;entryX=0;entryY=0.5;entryDx=0;entryDy=0;exitX=1;exitY=0.75;exitDx=0;exitDy=0;" parent="1" source="TbbzOK-Zggq_RYsdLNiC-123" target="TbbzOK-Zggq_RYsdLNiC-143" edge="1">
          <mxGeometry width="50" height="50" relative="1" as="geometry">
            <mxPoint x="420" y="760" as="sourcePoint" />
            <mxPoint x="470" y="710" as="targetPoint" />
          </mxGeometry>
        </mxCell>
        <mxCell id="TbbzOK-Zggq_RYsdLNiC-145" value="direccion" style="text;html=1;strokeColor=none;fillColor=none;align=center;verticalAlign=middle;whiteSpace=wrap;rounded=0;" parent="1" vertex="1">
          <mxGeometry x="470" y="660" width="60" height="30" as="geometry" />
        </mxCell>
        <mxCell id="TbbzOK-Zggq_RYsdLNiC-146" value="barrio" style="text;html=1;strokeColor=none;fillColor=none;align=center;verticalAlign=middle;whiteSpace=wrap;rounded=0;" parent="1" vertex="1">
          <mxGeometry x="540" y="555" width="60" height="30" as="geometry" />
        </mxCell>
        <mxCell id="TbbzOK-Zggq_RYsdLNiC-147" value="ciudad" style="text;html=1;strokeColor=none;fillColor=none;align=center;verticalAlign=middle;whiteSpace=wrap;rounded=0;" parent="1" vertex="1">
          <mxGeometry x="587" y="635" width="60" height="30" as="geometry" />
        </mxCell>
        <mxCell id="TbbzOK-Zggq_RYsdLNiC-149" value="1:1" style="text;html=1;strokeColor=none;fillColor=none;align=center;verticalAlign=middle;whiteSpace=wrap;rounded=0;" parent="1" vertex="1">
          <mxGeometry x="680" y="240" width="60" height="30" as="geometry" />
        </mxCell>
        <mxCell id="TbbzOK-Zggq_RYsdLNiC-155" value="1:n" style="text;html=1;strokeColor=none;fillColor=none;align=center;verticalAlign=middle;whiteSpace=wrap;rounded=0;" parent="1" vertex="1">
          <mxGeometry x="494" y="250" width="60" height="30" as="geometry" />
        </mxCell>
        <mxCell id="TbbzOK-Zggq_RYsdLNiC-156" value="1:n" style="text;html=1;strokeColor=none;fillColor=none;align=center;verticalAlign=middle;whiteSpace=wrap;rounded=0;" parent="1" vertex="1">
          <mxGeometry x="584" y="280" width="60" height="30" as="geometry" />
        </mxCell>
        <mxCell id="TbbzOK-Zggq_RYsdLNiC-157" value="1:n" style="text;html=1;strokeColor=none;fillColor=none;align=center;verticalAlign=middle;whiteSpace=wrap;rounded=0;" parent="1" vertex="1">
          <mxGeometry x="958" y="290" width="60" height="30" as="geometry" />
        </mxCell>
        <mxCell id="TbbzOK-Zggq_RYsdLNiC-158" value="1:1" style="text;html=1;strokeColor=none;fillColor=none;align=center;verticalAlign=middle;whiteSpace=wrap;rounded=0;" parent="1" vertex="1">
          <mxGeometry x="880" y="255" width="60" height="30" as="geometry" />
        </mxCell>
        <mxCell id="TbbzOK-Zggq_RYsdLNiC-159" value="1:n" style="text;html=1;strokeColor=none;fillColor=none;align=center;verticalAlign=middle;whiteSpace=wrap;rounded=0;" parent="1" vertex="1">
          <mxGeometry x="1045" y="250" width="60" height="30" as="geometry" />
        </mxCell>
        <mxCell id="TbbzOK-Zggq_RYsdLNiC-160" value="1:n" style="text;html=1;strokeColor=none;fillColor=none;align=center;verticalAlign=middle;whiteSpace=wrap;rounded=0;" parent="1" vertex="1">
          <mxGeometry x="340" y="290" width="60" height="30" as="geometry" />
        </mxCell>
        <mxCell id="TbbzOK-Zggq_RYsdLNiC-161" value="n:1" style="text;html=1;strokeColor=none;fillColor=none;align=center;verticalAlign=middle;whiteSpace=wrap;rounded=0;" parent="1" vertex="1">
          <mxGeometry x="280" y="345" width="60" height="30" as="geometry" />
        </mxCell>
        <mxCell id="TbbzOK-Zggq_RYsdLNiC-162" value="1:1" style="text;html=1;strokeColor=none;fillColor=none;align=center;verticalAlign=middle;whiteSpace=wrap;rounded=0;" parent="1" vertex="1">
          <mxGeometry x="350" y="410" width="60" height="30" as="geometry" />
        </mxCell>
        <mxCell id="TbbzOK-Zggq_RYsdLNiC-163" value="1:n" style="text;html=1;strokeColor=none;fillColor=none;align=center;verticalAlign=middle;whiteSpace=wrap;rounded=0;" parent="1" vertex="1">
          <mxGeometry x="320" y="520" width="60" height="30" as="geometry" />
        </mxCell>
        <mxCell id="TbbzOK-Zggq_RYsdLNiC-164" value="n;1" style="text;html=1;strokeColor=none;fillColor=none;align=center;verticalAlign=middle;whiteSpace=wrap;rounded=0;" parent="1" vertex="1">
          <mxGeometry x="260" y="560" width="60" height="30" as="geometry" />
        </mxCell>
        <mxCell id="TbbzOK-Zggq_RYsdLNiC-165" value="n:1" style="text;html=1;strokeColor=none;fillColor=none;align=center;verticalAlign=middle;whiteSpace=wrap;rounded=0;" parent="1" vertex="1">
          <mxGeometry x="354" y="615" width="60" height="30" as="geometry" />
        </mxCell>
        <mxCell id="TbbzOK-Zggq_RYsdLNiC-166" value="n:1" style="text;html=1;strokeColor=none;fillColor=none;align=center;verticalAlign=middle;whiteSpace=wrap;rounded=0;" parent="1" vertex="1">
          <mxGeometry x="740" y="285" width="60" height="30" as="geometry" />
        </mxCell>
        <mxCell id="TbbzOK-Zggq_RYsdLNiC-167" value="1:n" style="text;html=1;strokeColor=none;fillColor=none;align=center;verticalAlign=middle;whiteSpace=wrap;rounded=0;" parent="1" vertex="1">
          <mxGeometry x="683" y="325" width="60" height="30" as="geometry" />
        </mxCell>
        <mxCell id="TbbzOK-Zggq_RYsdLNiC-168" value="1:n" style="text;html=1;strokeColor=none;fillColor=none;align=center;verticalAlign=middle;whiteSpace=wrap;rounded=0;" parent="1" vertex="1">
          <mxGeometry x="740" y="385" width="60" height="30" as="geometry" />
        </mxCell>
        <mxCell id="TbbzOK-Zggq_RYsdLNiC-169" value="" style="ellipse;whiteSpace=wrap;html=1;aspect=fixed;" parent="1" vertex="1">
          <mxGeometry x="1107.5" y="142.5" width="27.5" height="27.5" as="geometry" />
        </mxCell>
        <mxCell id="TbbzOK-Zggq_RYsdLNiC-170" value="" style="ellipse;whiteSpace=wrap;html=1;aspect=fixed;" parent="1" vertex="1">
          <mxGeometry x="-120" y="-200" width="40" height="40" as="geometry" />
        </mxCell>
        <mxCell id="TbbzOK-Zggq_RYsdLNiC-171" value="" style="ellipse;whiteSpace=wrap;html=1;aspect=fixed;" parent="1" vertex="1">
          <mxGeometry x="250" y="230" width="40" height="40" as="geometry" />
        </mxCell>
        <mxCell id="TbbzOK-Zggq_RYsdLNiC-172" value="" style="endArrow=none;html=1;rounded=0;entryX=0;entryY=0.5;entryDx=0;entryDy=0;exitX=1;exitY=1;exitDx=0;exitDy=0;" parent="1" source="TbbzOK-Zggq_RYsdLNiC-171" target="TbbzOK-Zggq_RYsdLNiC-2" edge="1">
          <mxGeometry width="50" height="50" relative="1" as="geometry">
            <mxPoint x="280" y="300" as="sourcePoint" />
            <mxPoint x="330" y="250" as="targetPoint" />
          </mxGeometry>
        </mxCell>
        <mxCell id="TbbzOK-Zggq_RYsdLNiC-173" value="eps" style="text;html=1;strokeColor=none;fillColor=none;align=center;verticalAlign=middle;whiteSpace=wrap;rounded=0;" parent="1" vertex="1">
          <mxGeometry x="200" y="220" width="60" height="30" as="geometry" />
        </mxCell>
        <mxCell id="TbbzOK-Zggq_RYsdLNiC-174" value="" style="ellipse;whiteSpace=wrap;html=1;aspect=fixed;" parent="1" vertex="1">
          <mxGeometry x="313" y="410" width="30" height="30" as="geometry" />
        </mxCell>
      </root>
    </mxGraphModel>
  </diagram>
</mxfile>
